<?xml version="1.0" encoding="utf-8"?>
<!-- Generator: Adobe Illustrator 18.0.0, SVG Export Plug-In . SVG Version: 6.00 Build 0)  -->
<!DOCTYPE svg PUBLIC "-//W3C//DTD SVG 1.1//EN" "http://www.w3.org/Graphics/SVG/1.1/DTD/svg11.dtd">
<svg version="1.1" id="Layer_1" xmlns="http://www.w3.org/2000/svg" xmlns:xlink="http://www.w3.org/1999/xlink" x="0px" y="0px"
	 viewBox="0 0 164 51" enable-background="new 0 0 164 51" xml:space="preserve">
<g>
	<path fill="#FFFFFF" d="M164,44.3c0,2.6-2.1,4.7-4.7,4.7H4.7C2.1,49,0,46.9,0,44.3V6.7C0,4.1,2.1,2,4.7,2h154.5
		c2.6,0,4.7,2.1,4.7,4.7L164,44.3L164,44.3z"/>
	<path fill="#010101" d="M164,45.9c0,2.8-2.1,5.1-4.7,5.1H4.7C2.1,51,0,48.7,0,45.9V5.1C0,2.3,2.1,0,4.7,0h154.5
		c2.6,0,4.7,2.3,4.7,5.1L164,45.9L164,45.9z"/>
	<path fill="#FFFFFF" d="M36,25.2c0-4,3.3-5.9,3.4-6c-1.9-2.7-4.7-3.1-5.8-3.1c-2.4-0.3-4.8,1.4-6,1.4c-1.3,0-3.2-1.4-5.2-1.4
		c-2.6,0-5.1,1.6-6.5,3.9C13.2,25,15.3,32.1,18,36c1.3,1.9,2.9,4,4.9,4c2-0.1,2.7-1.3,5.2-1.3c2.4,0,3.1,1.3,5.2,1.2
		c2.1,0,3.5-1.9,4.8-3.9c1.5-2.2,2.2-4.4,2.2-4.5C40.2,31.6,36.1,30,36,25.2z"/>
	<path fill="#FFFFFF" d="M32.1,13.6c1.1-1.3,1.8-3.2,1.6-5c-1.6,0.1-3.5,1.1-4.6,2.4c-1,1.2-1.9,3.1-1.7,4.9
		C29.2,15.9,30.9,14.9,32.1,13.6z"/>
	<g>
		<path fill="#FFFFFF" d="M65,39.7h-2.8l-1.5-4.8h-5.3l-1.5,4.8h-2.7l5.3-16.4h3.3L65,39.7z M60.2,32.8l-1.4-4.3
			c-0.1-0.4-0.4-1.5-0.8-3.1h0c-0.2,0.7-0.4,1.7-0.8,3.1l-1.4,4.3H60.2z"/>
		<path fill="#FFFFFF" d="M78.6,33.6c0,2-0.5,3.6-1.6,4.8c-1,1-2.2,1.6-3.6,1.6c-1.6,0-2.7-0.6-3.4-1.7v6.2h-2.6V31.7
			c0-1.3,0-2.6-0.1-3.9h2.3l0.1,1.9h0c0.9-1.4,2.2-2.1,4-2.1c1.4,0,2.6,0.6,3.5,1.7C78.1,30.4,78.6,31.8,78.6,33.6z M75.9,33.7
			c0-1.2-0.3-2.1-0.8-2.8c-0.6-0.8-1.3-1.2-2.3-1.2c-0.6,0-1.2,0.2-1.8,0.6c-0.5,0.4-0.9,1-1,1.7c-0.1,0.3-0.1,0.6-0.1,0.8v2
			c0,0.9,0.3,1.6,0.8,2.2c0.5,0.6,1.2,0.9,2.1,0.9c1,0,1.8-0.4,2.3-1.1C75.6,36,75.9,35,75.9,33.7z"/>
		<path fill="#FFFFFF" d="M92.1,33.6c0,2-0.5,3.6-1.6,4.8c-1,1-2.2,1.6-3.6,1.6c-1.6,0-2.7-0.6-3.4-1.7v6.2h-2.6V31.7
			c0-1.3,0-2.6-0.1-3.9h2.3l0.1,1.9h0c0.9-1.4,2.2-2.1,4-2.1c1.4,0,2.6,0.6,3.5,1.7C91.7,30.4,92.1,31.8,92.1,33.6z M89.5,33.7
			c0-1.2-0.3-2.1-0.8-2.8c-0.6-0.8-1.3-1.2-2.3-1.2c-0.6,0-1.2,0.2-1.8,0.6c-0.5,0.4-0.9,1-1,1.7c-0.1,0.3-0.1,0.6-0.1,0.8v2
			c0,0.9,0.3,1.6,0.8,2.2c0.5,0.6,1.2,0.9,2.1,0.9c1,0,1.8-0.4,2.3-1.1C89.2,36,89.5,35,89.5,33.7z"/>
		<path fill="#FFFFFF" d="M107.3,35.1c0,1.4-0.5,2.5-1.5,3.4c-1.1,1-2.6,1.4-4.5,1.4c-1.8,0-3.2-0.3-4.2-1l0.6-2.2
			c1.2,0.7,2.4,1,3.8,1c1,0,1.8-0.2,2.3-0.7c0.6-0.4,0.8-1,0.8-1.8c0-0.7-0.2-1.2-0.7-1.7c-0.5-0.5-1.2-0.9-2.3-1.3
			c-2.9-1.1-4.3-2.6-4.3-4.7c0-1.3,0.5-2.4,1.5-3.3c1-0.9,2.4-1.3,4-1.3c1.5,0,2.7,0.3,3.7,0.8l-0.7,2.1c-0.9-0.5-2-0.8-3.1-0.8
			c-0.9,0-1.7,0.2-2.2,0.7c-0.4,0.4-0.7,0.9-0.7,1.5c0,0.6,0.3,1.2,0.8,1.6c0.4,0.4,1.2,0.8,2.4,1.3c1.4,0.6,2.4,1.2,3.1,2
			C107,33,107.3,33.9,107.3,35.1z"/>
		<path fill="#FFFFFF" d="M116.1,29.8h-2.9v5.7c0,1.5,0.5,2.2,1.5,2.2c0.5,0,0.9,0,1.2-0.1l0.1,2c-0.5,0.2-1.2,0.3-2,0.3
			c-1,0-1.8-0.3-2.4-0.9c-0.6-0.6-0.9-1.7-0.9-3.2v-6h-1.7v-2h1.7v-2.2l2.6-0.8v2.9h2.9C116.1,27.9,116.1,29.8,116.1,29.8z"/>
		<path fill="#FFFFFF" d="M129.1,33.7c0,1.8-0.5,3.3-1.6,4.5c-1.1,1.2-2.5,1.8-4.3,1.8c-1.7,0-3.1-0.6-4.1-1.7
			c-1-1.2-1.5-2.6-1.5-4.4c0-1.8,0.5-3.3,1.6-4.5c1.1-1.2,2.5-1.8,4.3-1.8c1.7,0,3.1,0.6,4.2,1.7C128.6,30.5,129.1,31.9,129.1,33.7z
			 M126.4,33.7c0-1.1-0.2-2-0.7-2.8c-0.6-0.9-1.3-1.4-2.4-1.4c-1.1,0-1.9,0.5-2.4,1.4c-0.5,0.8-0.7,1.7-0.7,2.8c0,1.1,0.2,2,0.7,2.8
			c0.6,0.9,1.4,1.4,2.4,1.4c1,0,1.8-0.5,2.4-1.4C126.1,35.8,126.4,34.8,126.4,33.7z"/>
		<path fill="#FFFFFF" d="M137.6,30.2c-0.3,0-0.5-0.1-0.8-0.1c-0.9,0-1.6,0.3-2.1,1c-0.4,0.6-0.7,1.4-0.7,2.3v6.2h-2.6v-8.1
			c0-1.4,0-2.6-0.1-3.7h2.3l0.1,2.3h0.1c0.3-0.8,0.7-1.4,1.3-1.9c0.6-0.4,1.2-0.6,1.9-0.6c0.2,0,0.5,0,0.7,0L137.6,30.2L137.6,30.2z
			"/>
		<path fill="#FFFFFF" d="M149.4,33.2c0,0.5,0,0.9-0.1,1.2h-7.9c0,1.2,0.4,2.1,1.1,2.7c0.7,0.5,1.5,0.8,2.6,0.8
			c1.2,0,2.2-0.2,3.2-0.6l0.4,1.8c-1.1,0.5-2.4,0.7-4,0.7c-1.8,0-3.3-0.5-4.3-1.6c-1-1.1-1.6-2.5-1.6-4.3c0-1.8,0.5-3.3,1.5-4.4
			c1-1.3,2.4-1.9,4.1-1.9c1.7,0,3,0.6,3.9,1.9C149,30.5,149.4,31.7,149.4,33.2z M146.9,32.5c0-0.8-0.2-1.5-0.5-2
			c-0.5-0.7-1.2-1.1-2.1-1.1c-0.9,0-1.6,0.4-2.1,1.1c-0.4,0.6-0.7,1.3-0.8,2L146.9,32.5L146.9,32.5z"/>
	</g>
	<g>
		<path fill="#FFFFFF" d="M58.9,17.4h-1.4l-0.8-2.4h-2.6l-0.7,2.4h-1.3l2.6-8.1h1.6L58.9,17.4z M56.6,14.1L55.9,12
			c-0.1-0.2-0.2-0.7-0.4-1.5h0c-0.1,0.3-0.2,0.8-0.4,1.5l-0.7,2.1H56.6z"/>
		<path fill="#FFFFFF" d="M65.4,11.6l-2.2,5.8H62l-2.1-5.8h1.4l1,3.1c0.2,0.5,0.3,1,0.4,1.5h0c0.1-0.4,0.2-0.9,0.4-1.5l1-3.1
			C64.1,11.6,65.4,11.6,65.4,11.6z"/>
		<path fill="#FFFFFF" d="M70.1,17.4L70,16.7h0c-0.4,0.5-1,0.8-1.7,0.8c-1,0-1.8-0.7-1.8-1.7c0-1.4,1.2-2.2,3.4-2.2v-0.1
			c0-0.8-0.4-1.1-1.2-1.1c-0.6,0-1.1,0.1-1.5,0.4L66.9,12c0.5-0.3,1.2-0.5,2-0.5c1.5,0,2.3,0.8,2.3,2.4V16c0,0.6,0,1,0.1,1.4
			L70.1,17.4L70.1,17.4z M69.9,14.5c-1.4,0-2.2,0.3-2.2,1.2c0,0.6,0.4,0.9,0.9,0.9c0.7,0,1.3-0.5,1.3-1.2
			C69.9,15.4,69.9,14.5,69.9,14.5z"/>
		<path fill="#FFFFFF" d="M74.1,10.7c-0.4,0-0.8-0.3-0.8-0.8c0-0.4,0.3-0.8,0.8-0.8c0.4,0,0.8,0.3,0.8,0.8
			C74.9,10.3,74.6,10.7,74.1,10.7z M74.7,17.4h-1.3v-5.8h1.3V17.4z"/>
		<path fill="#FFFFFF" d="M78.3,17.4H77V8.9h1.3V17.4z"/>
		<path fill="#FFFFFF" d="M83.8,17.4l-0.1-0.7h0c-0.4,0.5-1,0.8-1.7,0.8c-1,0-1.8-0.7-1.8-1.7c0-1.4,1.2-2.2,3.4-2.2v-0.1
			c0-0.8-0.4-1.1-1.2-1.1c-0.6,0-1.1,0.1-1.5,0.4L80.6,12c0.5-0.3,1.2-0.5,2-0.5c1.5,0,2.3,0.8,2.3,2.4V16c0,0.6,0,1,0.1,1.4H83.8z
			 M83.6,14.5c-1.4,0-2.2,0.3-2.2,1.2c0,0.6,0.4,0.9,0.9,0.9c0.7,0,1.3-0.5,1.3-1.2V14.5z"/>
		<path fill="#FFFFFF" d="M90.1,17.6c-0.8,0-1.4-0.3-1.8-1h0l-0.1,0.9h-1.1c0-0.5,0-1,0-1.6V8.9h1.3v3.5h0c0.4-0.6,1-1,1.9-1
			c1.4,0,2.4,1.2,2.4,2.9C92.7,16.2,91.6,17.6,90.1,17.6z M89.9,12.5c-0.7,0-1.4,0.6-1.4,1.5v1c0,0.8,0.6,1.5,1.4,1.5
			c1,0,1.5-0.8,1.5-2C91.4,13.3,90.8,12.5,89.9,12.5z"/>
		<path fill="#FFFFFF" d="M95.9,17.4h-1.3V8.9h1.3V17.4z"/>
		<path fill="#FFFFFF" d="M102.9,14.8H99c0,1.1,0.8,1.7,1.8,1.7c0.6,0,1.1-0.1,1.6-0.3l0.2,0.9c-0.5,0.2-1.2,0.4-1.9,0.4
			c-1.8,0-2.9-1.1-2.9-2.9c0-1.8,1.1-3.1,2.7-3.1c1.5,0,2.4,1.1,2.4,2.8C103,14.5,103,14.7,102.9,14.8z M101.7,13.9
			c0-0.9-0.5-1.5-1.3-1.5c-0.7,0-1.3,0.6-1.4,1.5H101.7z"/>
		<path fill="#FFFFFF" d="M110.7,17.6c-1.7,0-2.8-1.3-2.8-3c0-1.8,1.1-3.1,2.9-3.1c1.7,0,2.8,1.2,2.8,3
			C113.6,16.3,112.5,17.6,110.7,17.6z M110.8,12.4c-0.9,0-1.5,0.9-1.5,2.1c0,1.2,0.6,2.1,1.5,2.1c0.9,0,1.5-0.9,1.5-2.1
			C112.3,13.3,111.7,12.4,110.8,12.4z"/>
		<path fill="#FFFFFF" d="M120.6,17.4h-1.3v-3.3c0-1-0.4-1.5-1.2-1.5c-0.8,0-1.3,0.7-1.3,1.4v3.5h-1.3v-4.1c0-0.5,0-1.1,0-1.7h1.1
			l0.1,0.9h0c0.3-0.6,1.1-1,1.8-1c1.2,0,2,0.9,2,2.4L120.6,17.4L120.6,17.4z"/>
		<path fill="#FFFFFF" d="M129,12.6h-1.4v2.8c0,0.7,0.3,1.1,0.8,1.1c0.2,0,0.4,0,0.6-0.1l0,1c-0.3,0.1-0.6,0.1-1,0.1
			c-1,0-1.6-0.6-1.6-2v-2.9h-0.8v-1h0.8v-1.1l1.3-0.4v1.4h1.4V12.6z"/>
		<path fill="#FFFFFF" d="M135.9,17.4h-1.3v-3.3c0-1-0.4-1.6-1.2-1.6c-0.7,0-1.3,0.5-1.3,1.4v3.5h-1.3V8.9h1.3v3.5h0
			c0.4-0.6,1-0.9,1.7-0.9c1.2,0,2,1,2,2.5V17.4z"/>
		<path fill="#FFFFFF" d="M142.5,14.8h-3.9c0,1.1,0.8,1.7,1.8,1.7c0.6,0,1.1-0.1,1.6-0.3l0.2,0.9c-0.5,0.2-1.2,0.4-1.9,0.4
			c-1.8,0-2.9-1.1-2.9-2.9c0-1.8,1.1-3.1,2.7-3.1c1.5,0,2.4,1.1,2.4,2.8C142.5,14.5,142.5,14.7,142.5,14.8z M141.3,13.9
			c0-0.9-0.5-1.5-1.3-1.5c-0.7,0-1.3,0.6-1.4,1.5H141.3z"/>
	</g>
</g>
</svg>
